<?xml version="1.0" encoding="UTF-8" standalone="no"?><!DOCTYPE svg PUBLIC "-//W3C//DTD SVG 1.1//EN" "http://www.w3.org/Graphics/SVG/1.1/DTD/svg11.dtd"><svg width="100%" height="100%" viewBox="0 0 2046 458" version="1.1" xmlns="http://www.w3.org/2000/svg" xmlns:xlink="http://www.w3.org/1999/xlink" xml:space="preserve" xmlns:serif="http://www.serif.com/" style="fill-rule:evenodd;clip-rule:evenodd;stroke-linejoin:round;stroke-miterlimit:2;"><rect id="Artboard1" x="0" y="0" width="2045.43" height="457.811" style="fill:none;"/><path d="M967.878,0.379c-8.487,0.649 -22.279,2.594 -31.828,4.421c-9.666,1.886 -25.462,5.894 -35.363,9.076c-17.152,5.541 -38.547,15.089 -52.221,23.341c-13.556,8.133 -25.816,17.917 -37.427,29.764c-12.436,12.731 -20.334,23.694 -28.291,39.077c-14.499,28.056 -20.924,58.881 -22.397,107.624l-0.354,12.083l0.649,15.619c1.296,29.824 4.125,54.343 9.135,77.506c3.537,16.562 7.073,27.23 12.79,38.665c10.374,20.746 21.454,33.772 41.376,48.507c7.957,5.894 31.297,21.867 35.776,24.519c5.305,3.124 15.737,8.252 22.397,10.904c21.337,8.546 47.27,13.556 81.337,15.619l11.494,0.707l61.887,-0.589l9.43,-0.943c5.187,-0.531 12.2,-1.356 15.619,-1.886c14.028,-2.063 28.704,-5.835 39.961,-10.197c13.497,-5.305 33.419,-16.739 46.68,-26.759c3.065,-2.357 8.252,-6.837 11.553,-10.019c13.143,-12.613 20.216,-23.694 34.833,-54.932c2.77,-5.835 6.248,-13.674 7.839,-17.388c8.311,-20.098 14.205,-44.853 17.387,-73.085c0.472,-4.361 1.12,-13.733 1.474,-20.747l0.53,-12.79l-0.53,-7.544c-0.766,-10.314 -2.004,-19.038 -4.715,-32.594c-4.008,-19.98 -9.784,-41.317 -16.621,-61.238c-8.37,-24.46 -17.918,-43.144 -29.588,-57.643c-5.482,-6.778 -16.503,-17.682 -25.108,-24.873c-9.254,-7.721 -23.694,-18.566 -29.824,-22.338c-9.489,-5.894 -21.513,-11.14 -33.124,-14.499c-10.786,-3.124 -26.287,-5.659 -41.376,-6.896c-10.197,-0.825 -64.834,-1.179 -73.38,-0.472Z" style="fill-rule:nonzero;"/><path d="M972.888,154.271c-1.474,0.295 -3.537,0.943 -4.597,1.415c-1.061,0.53 -3.301,1.296 -4.951,1.827c-1.651,0.471 -3.655,1.296 -4.421,1.768l-1.356,0.884l0,1.297c0,0.707 0.531,1.591 1.179,2.004c0.649,0.412 1.179,1.179 1.179,1.827c0,0.589 0.531,1.532 1.179,2.122c0.648,0.589 1.179,1.414 1.179,1.886c-0,0.412 0.294,0.766 0.589,0.766c0.354,-0 0.589,0.236 0.589,0.589c0,0.295 0.59,1.179 1.356,2.004c2.122,2.299 2.77,3.242 2.77,3.831c0,0.354 0.354,0.826 0.766,1.061c0.413,0.236 1.356,1.238 2.063,2.24c2.653,3.536 4.008,5.187 5.835,7.309c1.061,1.178 1.945,2.475 1.945,2.829c0,0.412 0.236,0.766 0.531,0.766c0.295,-0 0.943,0.884 1.414,1.886c0.531,1.061 1.474,2.358 2.122,2.829c0.708,0.472 1.238,1.061 1.238,1.297c-0,0.648 2.24,2.829 2.947,2.829c0.354,-0 0.589,0.177 0.589,0.412c0,0.472 1.297,2.004 5.776,6.896c2.24,2.476 9.549,13.144 9.549,13.969c-0,0.295 0.294,0.531 0.589,0.531c0.354,-0 0.59,0.353 0.59,0.766c-0,0.412 0.53,1.061 1.178,1.473c0.649,0.413 1.179,1.12 1.179,1.592c0,0.412 0.472,1.179 1.061,1.591c0.53,0.413 1.532,1.768 2.181,3.006c0.648,1.238 2.181,3.36 3.359,4.715c1.238,1.356 2.24,2.711 2.24,2.947c0,0.295 0.648,1.356 1.474,2.417c0.825,1.061 1.473,2.122 1.473,2.298c0,0.236 0.943,1.71 2.063,3.301c1.12,1.532 2.063,3.124 2.063,3.536c-0,0.354 0.412,0.649 0.943,0.649c0.53,-0 1.061,0.53 1.238,1.179c0.176,0.648 0.53,1.178 0.766,1.178c0.295,0 0.648,0.767 0.884,1.769c0.236,0.943 1.179,2.593 2.122,3.595c0.943,1.002 1.709,1.945 1.709,2.122c0,0.118 0.648,1.12 1.474,2.18c0.825,1.061 1.473,2.299 1.473,2.712c0,1.061 4.656,7.014 6.307,8.074c0.766,0.531 1.355,1.179 1.355,1.474c0,0.825 1.592,2.24 2.476,2.24c0.471,-0 2.711,-1.827 5.069,-4.126l4.243,-4.126l0,-1.179c0,-0.648 0.236,-1.179 0.59,-1.179c0.294,0 0.766,-1.06 0.943,-2.357c0.235,-1.297 0.648,-2.358 0.943,-2.358l0.589,0l-0.295,-1.179c-0.176,-0.648 -0.059,-1.296 0.177,-1.473c0.236,-0.177 0.649,-1.709 0.884,-3.419c0.236,-1.65 0.649,-3.359 0.884,-3.654c1.12,-1.532 2.063,-11.611 2.004,-22.809l-0.059,-8.075l-0.589,-0.766c-0.354,-0.413 -0.825,-1.71 -1.061,-2.83c-0.236,-1.119 -0.707,-2.416 -1.061,-2.888c-0.884,-1.061 -2.063,-4.243 -3.3,-9.194c-0.59,-2.299 -1.415,-4.951 -1.828,-5.894c-1.65,-3.949 -3.182,-6.778 -3.654,-6.778c-0.236,-0 -0.471,-0.472 -0.471,-1.12c-0,-0.59 -0.413,-1.415 -0.884,-1.827c-0.472,-0.413 -0.885,-1.179 -0.885,-1.768c0,-1.238 -3.3,-5.894 -4.184,-5.894c-0.767,-0 -5.6,-5.01 -6.071,-6.248c-0.177,-0.472 -0.707,-0.825 -1.12,-0.825c-0.471,-0 -1.945,-1.179 -3.301,-2.653c-1.355,-1.473 -2.593,-2.652 -2.77,-2.652c-0.177,0 -0.884,-0.648 -1.473,-1.414c-0.59,-0.767 -4.185,-2.888 -7.898,-4.775c-3.713,-1.827 -6.778,-3.595 -6.778,-3.89c-0,-0.294 -0.413,-0.53 -0.884,-0.53c-0.472,0 -1.356,-0.236 -1.945,-0.589c-1.945,-1.061 -5.128,-2.24 -6.012,-2.24c-2.063,-0 -12.319,-0.766 -14.971,-1.061c-4.715,-0.589 -11.67,-0.648 -14.499,-0.118Z" style="fill-rule:nonzero;"/><path d="M931.866,177.611c-3.36,2.476 -9.372,9.431 -10.668,12.496c-0.649,1.473 -1.769,4.774 -2.476,7.367c-0.766,2.593 -1.65,5.658 -2.004,6.778l-0.648,2.063l-0.118,10.491c-0.118,5.835 0.059,13.497 0.354,17.093c0.589,7.78 1.827,15.914 2.416,16.326c0.295,0.177 0.707,2.004 1.061,4.067c0.354,2.122 0.884,4.067 1.238,4.42c0.294,0.295 0.589,1.002 0.589,1.474c0,1.415 2.947,7.191 3.89,7.544c0.413,0.177 0.825,0.59 0.825,0.884c0,0.767 9.843,10.492 10.668,10.492c0.295,-0 3.36,1.296 6.779,2.947c3.418,1.591 6.424,2.947 6.719,2.947c0.353,-0 0.589,0.294 0.589,0.589c0,0.354 1.945,1.474 4.303,2.593c4.361,2.004 11.788,4.244 20.157,6.071l4.715,1.061l9.725,0l9.725,-0.059l6.189,-1.355c8.664,-1.887 12.377,-3.006 12.377,-3.773c0,-0.353 -0.648,-1.296 -1.414,-2.121c-1.591,-1.769 -5.658,-7.545 -5.658,-8.075c-0,-0.59 -4.244,-6.366 -4.833,-6.601c-0.236,-0.118 -0.472,-0.59 -0.472,-1.061c0,-0.472 -0.236,-0.826 -0.589,-0.826c-0.295,0 -0.59,-0.471 -0.59,-1.06c0,-0.59 -0.648,-1.71 -1.473,-2.476c-0.825,-0.766 -1.474,-1.709 -1.474,-2.181c0,-0.412 -0.412,-0.766 -0.884,-0.766l-0.884,0l0,-1.179c0,-0.648 -0.236,-1.179 -0.471,-1.179c-0.295,0 -2.063,-2.298 -3.949,-5.068c-1.827,-2.771 -3.949,-5.6 -4.657,-6.307c-0.707,-0.707 -1.886,-2.24 -2.711,-3.359c-0.766,-1.12 -1.768,-2.299 -2.181,-2.535c-0.412,-0.236 -0.766,-0.825 -0.766,-1.238c0,-0.412 -0.884,-1.945 -1.886,-3.359c-3.359,-4.539 -4.597,-6.484 -4.597,-7.014c-0,-0.354 -0.236,-0.589 -0.472,-0.589c-0.235,-0 -0.943,-0.826 -1.532,-1.769c-0.531,-1.002 -1.709,-2.534 -2.535,-3.418c-3.949,-4.244 -7.603,-8.605 -8.074,-9.607c-0.295,-0.59 -0.767,-1.12 -1.002,-1.12c-0.295,-0 -0.943,-0.825 -1.474,-1.886c-0.53,-1.061 -1.296,-2.181 -1.65,-2.535c-0.354,-0.412 -1.12,-1.355 -1.709,-2.121c-7.663,-10.551 -10.079,-13.851 -10.374,-14.087c-0.177,-0.177 -0.589,-0.707 -0.943,-1.238c-2.122,-3.536 -5.953,-8.782 -6.306,-8.782c-0.236,0 -0.472,-0.354 -0.472,-0.766c0,-0.472 -0.766,-1.945 -1.768,-3.242c-0.943,-1.355 -1.768,-2.652 -1.768,-2.829c-0,-0.177 -0.531,-1.12 -1.238,-2.063c-0.648,-0.943 -1.65,-1.709 -2.24,-1.709c-0.589,-0 -2.122,0.766 -3.359,1.65Z" style="fill-rule:nonzero;"/><path d="M875.048,101.107c-0.825,0.295 -2.299,0.472 -3.36,0.531c-2.063,0.059 -9.607,3.242 -9.607,4.067c-0,0.294 -1.061,1.237 -2.299,2.063c-5.717,3.772 -13.733,12.082 -15.678,16.149c-0.53,1.061 -1.237,2.24 -1.65,2.652c-0.707,0.708 -2.77,4.539 -5.776,10.492c-0.943,1.945 -1.533,3.654 -2.947,8.841c-0.531,1.827 -2.004,11.021 -2.593,16.208c-0.59,5.187 -0.177,29.057 0.766,43.262l0.471,7.132l1.12,1.178c1.297,1.415 3.36,1.533 5.54,0.236c1.828,-1.061 2.299,-1.709 4.834,-6.719l1.768,-3.477l0.589,-5.187c0.59,-5.246 0.884,-10.963 1.415,-29.647c0.177,-5.658 0.53,-11.788 0.825,-13.556c1.65,-10.256 2.593,-14.794 3.713,-17.682l1.238,-3.242l2.534,-2.063c1.415,-1.119 2.535,-2.357 2.594,-2.652c0.059,-0.589 1.532,-1.768 6.188,-4.833l2.358,-1.591l5.128,-0.236l5.068,-0.236l4.067,0.649c5.423,0.943 7.191,1.945 16.327,8.899c2.298,1.769 6.719,6.248 9.489,9.726c1.532,1.945 4.008,4.715 5.422,6.07c1.356,1.415 2.535,2.888 2.535,3.183c-0,0.354 1.296,1.886 2.888,3.419c1.532,1.591 3.536,4.008 4.42,5.422c0.825,1.356 1.945,3.124 2.476,3.831l0.884,1.238l-5.953,6.13c-6.012,6.07 -8.428,8.841 -9.666,10.962c-0.354,0.649 -1.886,3.242 -3.478,5.777c-1.532,2.593 -3.064,5.717 -3.418,7.013c-0.59,2.181 -1.356,4.657 -3.713,12.083c-0.472,1.474 -1.297,4.833 -1.827,7.368l-1.002,4.715l-0,26.523l0.943,5.776c0.471,3.124 1.002,5.953 1.178,6.188c0.177,0.295 0.59,2.299 0.943,4.539c0.649,4.126 2.181,9.194 4.185,13.851c1.886,4.302 4.303,8.841 4.833,8.841c0.236,-0 0.413,0.353 0.413,0.766c-0,0.412 0.589,1.355 1.355,2.004c1.945,1.768 4.539,4.951 4.539,5.54c-0,0.295 0.294,0.531 0.648,0.531c0.354,-0 2.063,1.414 3.713,3.064c1.651,1.71 4.067,3.655 5.364,4.362c1.297,0.648 2.888,1.474 3.536,1.827c2.063,1.179 6.719,3.124 7.368,3.124c0.294,-0 0.589,0.236 0.589,0.589c0,0.295 0.354,0.59 0.825,0.59c0.472,-0 1.238,0.353 1.651,0.766c0.884,0.884 4.833,2.77 8.9,4.244c1.532,0.589 2.947,1.296 3.123,1.532c0.177,0.295 0.825,0.531 1.474,0.531c0.589,-0 1.591,0.235 2.181,0.589c0.53,0.295 2.711,0.943 4.833,1.414c2.121,0.472 6.07,1.415 8.841,2.122l5.01,1.297l9.43,0.413c5.187,0.176 10.904,0.117 12.672,-0.118c4.303,-0.649 18.094,-3.772 23.163,-5.187c2.181,-0.648 3.949,-1.415 3.949,-1.709c0,-0.295 1.002,-0.708 2.24,-0.943c1.179,-0.177 3.006,-0.825 3.949,-1.415c1.002,-0.589 2.416,-1.179 3.242,-1.355l1.473,-0.354l4.008,3.536c2.181,2.004 3.949,3.89 3.949,4.244c0,0.943 6.424,7.014 9.136,8.664c2.475,1.474 3.831,2.652 3.831,3.183c-0,0.589 2.298,2.711 2.947,2.711c0.353,0 0.589,0.354 0.589,0.766c0,0.708 3.065,3.949 3.772,3.949c0.177,0 1.651,0.943 3.301,2.122c1.591,1.179 2.947,2.535 2.947,3.065c-0,0.471 0.177,0.766 0.354,0.53c0.235,-0.176 1.473,0.531 2.829,1.651c1.355,1.061 3.241,2.181 4.184,2.416c1.002,0.236 2.83,0.943 4.126,1.592c4.067,2.063 4.303,2.18 7.191,2.475c4.715,0.472 9.136,1.415 10.079,2.24l0.884,0.707l21.336,0l3.831,-1.532c2.122,-0.884 5.069,-2.594 6.483,-3.831c3.655,-3.183 7.073,-6.778 7.073,-7.486c0,-0.353 0.354,-1.061 0.825,-1.532c1.474,-1.651 6.189,-11.493 6.778,-14.264c0.884,-3.831 1.533,-11.257 1.474,-16.444c-0,-2.416 -0.118,-11.611 -0.177,-20.334l-0.177,-15.914l-0.766,-6.542l-0.825,-6.484l-1.002,-2.18c-0.59,-1.179 -1.238,-2.181 -1.415,-2.181c-0.235,-0 -1.178,0.412 -2.122,0.884l-1.768,0.825l-1.296,2.476c-0.708,1.296 -1.297,2.711 -1.297,3.123c-0,0.413 -0.648,1.356 -1.474,2.122l-1.473,1.356l-0,1.827c-0,1.002 0.413,4.892 0.943,8.605l0.943,6.778l-0.118,25.934l-1.12,7.603l-1.12,7.662l-1.119,0.766c-0.59,0.472 -1.71,1.415 -2.535,2.122c-0.825,0.708 -2.122,1.651 -2.947,2.122l-1.473,0.766l-6.484,0.118c-5.717,0.118 -8.841,-0.177 -14.44,-1.12c-0.825,-0.176 -2.534,-0.353 -3.831,-0.471c-3.006,-0.354 -9.666,-2.181 -10.079,-2.829c-0.177,-0.295 -1.002,-0.531 -1.768,-0.531l-1.532,0l-2.181,-2.357c-1.179,-1.297 -2.476,-2.358 -2.829,-2.358c-0.413,0 -0.884,-0.53 -1.061,-1.179l-0.354,-1.178l-2.416,-0l-3.183,-3.242c-1.768,-1.768 -3.183,-3.478 -3.183,-3.831c0,-0.825 -1.179,-2.004 -2.475,-2.535c-0.59,-0.176 -1.061,-0.648 -1.061,-0.943c-0,-0.294 -0.531,-0.707 -1.179,-0.943c-0.648,-0.177 -1.591,-1.12 -2.122,-2.063c-0.589,-0.943 -1.65,-2.004 -2.416,-2.416c-0.767,-0.413 -1.356,-1.061 -1.356,-1.415c-0,-0.412 -0.472,-1.237 -1.002,-1.945c-0.589,-0.648 -1.532,-1.768 -2.122,-2.475l-1.12,-1.297l1.415,-1.532c0.766,-0.825 1.945,-2.004 2.652,-2.653c1.945,-1.532 6.542,-10.078 7.898,-14.499c0.648,-2.181 1.474,-4.479 1.768,-5.245c1.71,-4.244 2.888,-7.781 3.183,-9.961c0.118,-0.884 0.648,-2.653 1.12,-3.89c1.355,-3.065 3.242,-11.258 3.654,-15.443c0.236,-1.945 0.59,-3.831 0.884,-4.184c0.295,-0.354 0.472,-2.712 0.472,-5.305c-0,-2.534 0.294,-5.54 0.589,-6.601c0.295,-1.061 0.413,-2.358 0.236,-2.77c-0.177,-0.472 -0.354,-2.77 -0.472,-5.128c-0.235,-7.191 -1.473,-14.028 -2.77,-15.442c-0.236,-0.354 -0.471,-0.943 -0.471,-1.415c-0,-0.412 -0.472,-1.886 -1.12,-3.242c-0.59,-1.355 -1.297,-3.418 -1.533,-4.538c-0.235,-1.12 -0.648,-2.357 -0.884,-2.652c-0.235,-0.354 -0.648,-1.945 -0.884,-3.654c-0.236,-1.71 -1.179,-4.48 -2.063,-6.189c-0.943,-1.709 -2.239,-4.303 -2.947,-5.776c-2.063,-4.362 -5.894,-9.961 -7.131,-10.315c-0.59,-0.235 -1.12,-0.766 -1.12,-1.296c-0,-0.884 -2.77,-3.714 -3.655,-3.714c-0.294,0 -0.471,-0.294 -0.471,-0.589c-0,-0.648 -2.122,-2.947 -2.711,-2.947c-0.236,0 -1.002,-0.589 -1.71,-1.356c-0.707,-0.707 -2.003,-1.827 -2.829,-2.416c-0.884,-0.59 -1.591,-1.356 -1.591,-1.65c0,-0.826 -1.356,-2.004 -2.829,-2.476c-0.707,-0.236 -1.65,-0.766 -2.004,-1.179c-1.415,-1.355 -7.25,-3.89 -10.373,-4.479c-1.71,-0.295 -3.714,-1.002 -4.421,-1.474c-0.707,-0.471 -1.827,-0.884 -2.593,-0.884c-0.708,0 -1.474,-0.294 -1.651,-0.589c-0.176,-0.354 -1.119,-0.59 -2.004,-0.59c-0.943,0 -2.77,-0.353 -4.066,-0.825c-1.356,-0.471 -2.888,-0.825 -3.478,-0.825c-0.589,0.059 -5.599,-0.118 -11.081,-0.353l-10.078,-0.472l-1.533,1.886l-4.42,0c-4.362,0 -8.959,0.766 -10.904,1.827c-0.589,0.295 -1.65,0.531 -2.417,0.531c-0.707,-0 -2.239,0.471 -3.359,1.061c-1.12,0.53 -3.242,1.355 -4.715,1.827c-4.008,1.179 -9.431,3.713 -11.317,5.304c-2.947,2.417 -4.951,1.651 -8.841,-3.477c-0.825,-1.12 -2.357,-2.947 -3.359,-4.067c-1.002,-1.12 -1.827,-2.24 -1.827,-2.417c-0,-0.825 -22.81,-23.458 -25.934,-25.756c-1.768,-1.297 -4.008,-3.065 -4.892,-3.949c-0.884,-0.825 -2.122,-1.533 -2.711,-1.533c-0.59,0 -1.415,-0.412 -1.827,-0.884c-1.297,-1.591 -10.197,-5.01 -10.963,-4.243c-0.236,0.176 -0.825,0.117 -1.415,-0.177c-1.296,-0.708 -12.259,-1.12 -14.145,-0.59Zm111.16,53.636c1.297,0.294 5.717,0.707 9.843,0.884l7.427,0.294l3.713,1.592c2.063,0.884 4.302,2.181 5.069,2.829c0.766,0.648 2.711,1.65 4.42,2.299c4.185,1.532 6.778,3.241 10.845,7.131c1.886,1.827 4.126,3.713 5.069,4.303c0.884,0.53 1.591,1.12 1.591,1.355c0,0.177 2.063,2.476 4.656,5.01l4.657,4.657l3.241,6.247c3.006,5.776 3.89,8.075 5.718,15.207c0.412,1.473 1.473,4.302 2.416,6.365c0.943,2.063 1.709,4.244 1.709,4.892c0,0.59 0.236,1.238 0.531,1.474c0.53,0.294 1.65,7.898 1.414,9.725c-0.059,0.471 -0.294,3.772 -0.471,7.367c-0.236,3.537 -0.472,7.25 -0.59,8.252c-0.353,3.772 -3.949,16.975 -5.599,20.57l-1.709,3.772l-2.358,2.299c-4.243,4.066 -5.245,4.892 -5.894,4.892c-0.353,-0 -0.648,-0.413 -0.648,-0.884c0,-0.472 -0.354,-0.885 -0.825,-0.885c-0.943,0 -5.069,-4.361 -5.069,-5.363c0,-0.413 -0.648,-1.297 -1.473,-2.063c-0.826,-0.766 -1.474,-1.827 -1.474,-2.416c0,-0.59 -0.53,-1.415 -1.179,-1.828c-0.648,-0.412 -1.179,-1.002 -1.179,-1.414c0,-0.354 -0.353,-1.12 -0.825,-1.592c-1.414,-1.591 -3.3,-5.363 -3.3,-6.542l-0,-1.179l-1.179,0c-0.648,0 -1.179,-0.294 -1.179,-0.589c0,-0.648 -2.77,-5.128 -3.949,-6.366c-0.412,-0.412 -0.766,-1.178 -0.766,-1.65c-0,-0.471 -0.531,-1.297 -1.179,-1.827c-0.648,-0.589 -1.179,-1.238 -1.179,-1.474c0,-0.235 -0.589,-1.06 -1.296,-1.886c-2.181,-2.298 -2.771,-3.182 -3.537,-4.774c-0.353,-0.825 -0.825,-1.473 -1.061,-1.473c-0.235,-0 -1.061,-1.356 -1.827,-2.947c-0.766,-1.651 -1.591,-2.947 -1.827,-2.947c-0.413,-0 -6.955,-9.136 -6.955,-9.843c0,-0.236 -0.825,-1.238 -1.768,-2.181c-1.002,-0.943 -1.768,-1.945 -1.768,-2.24c-0,-0.471 -1.415,-2.239 -4.539,-5.658c-1.061,-1.12 -1.945,-2.24 -1.945,-2.416c0,-0.177 -0.589,-0.649 -1.296,-0.943l-1.356,-0.59l-0.177,-1.355c-0.118,-0.708 -0.589,-1.297 -1.002,-1.297c-0.471,-0 -1.179,-0.59 -1.532,-1.297c-0.413,-0.766 -1.474,-2.004 -2.417,-2.829c-0.884,-0.766 -1.65,-1.768 -1.65,-2.181c-0,-0.353 -0.354,-0.943 -0.766,-1.178c-0.413,-0.236 -2.004,-2.24 -3.537,-4.48c-1.591,-2.181 -3.064,-3.949 -3.359,-3.949c-0.236,0 -0.649,-0.825 -0.884,-1.827l-0.413,-1.827l-1.12,-0.295c-0.589,-0.177 -1.12,-0.471 -1.12,-0.707c0,-0.177 -0.648,-1.12 -1.473,-2.063c-0.825,-0.943 -1.474,-2.004 -1.474,-2.358c0,-0.353 -0.471,-0.943 -1.119,-1.355c-0.59,-0.354 -1.71,-1.886 -2.417,-3.36c-0.707,-1.473 -1.591,-2.888 -2.004,-3.183c-0.766,-0.471 -3.301,-4.597 -3.301,-5.422c0,-0.589 6.012,-3.536 7.25,-3.536c0.413,-0 1.886,-0.59 3.36,-1.238c1.473,-0.707 3.831,-1.415 5.304,-1.709c3.772,-0.649 9.902,-0.649 12.731,-0Zm-47.918,25.108c1.179,1.709 2.181,3.301 2.181,3.654c-0,0.295 0.412,0.708 0.884,0.943c0.472,0.177 0.884,0.708 0.884,1.179c0,0.472 1.179,2.534 2.652,4.597c1.474,2.063 3.006,4.362 3.36,5.187c0.413,0.825 1.356,1.945 2.063,2.535c0.766,0.589 1.355,1.473 1.355,1.945c0,0.471 0.413,1.001 0.885,1.178c0.471,0.236 0.884,0.708 0.884,1.12c-0,0.413 0.177,0.884 0.471,1.002c0.531,0.236 6.012,7.427 6.012,7.898c0,0.354 1.827,2.77 3.713,4.951c0.413,0.472 1.179,1.532 1.71,2.358c0.53,0.825 1.768,2.357 2.77,3.477c1.002,1.12 1.827,2.24 1.827,2.534c-0,0.236 0.353,0.472 0.825,0.472c0.472,0 1.061,0.53 1.238,1.179c0.235,0.648 1.061,1.827 1.886,2.593c0.766,0.766 1.768,1.886 2.122,2.594c1.061,1.768 5.304,8.015 5.776,8.369c0.412,0.354 3.477,4.892 4.479,6.778c0.413,0.707 1.768,2.358 3.006,3.595c1.238,1.297 3.536,4.362 5.187,6.955c1.591,2.535 3.418,5.187 4.067,5.953c0.648,0.766 1.591,1.945 2.063,2.711c0.471,0.708 1.473,2.004 2.239,2.888c0.708,0.885 1.297,1.945 1.297,2.299c-0,0.354 0.236,0.648 0.471,0.648c0.295,0 0.826,0.649 1.179,1.474c0.413,0.825 1.768,2.947 3.065,4.656c1.297,1.709 2.358,3.419 2.358,3.772c-0,0.295 0.177,0.708 0.471,0.826c0.236,0.058 1.297,1.473 2.417,3.123c1.12,1.592 2.416,3.301 2.888,3.714l0.943,0.707l-0.59,0.53c-0.884,0.884 -7.721,3.006 -9.607,3.006c-1.002,0 -2.947,0.413 -4.361,0.884l-2.594,0.884l-6.719,0.295c-3.713,0.177 -6.955,0.295 -7.308,0.295c-0.295,-0.059 -1.769,-0.118 -3.242,-0.236c-4.126,-0.295 -11.258,-1.532 -13.851,-2.417c-1.297,-0.412 -4.185,-1.237 -6.365,-1.768c-2.181,-0.589 -4.362,-1.414 -4.833,-1.827c-0.472,-0.471 -2.063,-1.061 -3.537,-1.355c-1.473,-0.295 -3.183,-0.943 -3.772,-1.474c-0.589,-0.53 -1.356,-0.943 -1.709,-0.943c-0.413,0 -0.708,-0.236 -0.708,-0.589c0,-0.943 -2.475,-2.947 -3.772,-2.888c-0.707,-0 -2.121,-0.177 -3.123,-0.413l-1.945,-0.354l-0,-1.532l-1.887,-0.413c-1.002,-0.235 -2.534,-1.061 -3.359,-1.827c-0.825,-0.766 -1.709,-1.414 -2.004,-1.414c-0.236,-0 -0.707,-0.649 -1.002,-1.474c-0.295,-0.825 -0.884,-1.473 -1.297,-1.473c-0.412,-0 -1.886,-1.533 -3.182,-3.419c-2.181,-3.006 -3.242,-4.951 -5.069,-9.548c-0.354,-0.825 -0.825,-1.886 -1.061,-2.358c-0.236,-0.53 -0.649,-2.122 -0.884,-3.536c-0.236,-1.415 -0.649,-3.006 -0.884,-3.536c-0.295,-0.472 -0.826,-3.301 -1.238,-6.189c-0.413,-2.947 -0.943,-5.717 -1.179,-6.307c-0.648,-1.179 -0.766,-28.114 -0.177,-31.591c0.177,-1.356 0.649,-2.653 0.884,-2.83c0.295,-0.176 0.531,-1.178 0.531,-2.18c-0,-1.061 0.353,-2.594 0.825,-3.478c0.471,-0.884 1.002,-2.357 1.238,-3.359c0.707,-3.183 2.888,-7.014 6.188,-10.727c3.773,-4.303 8.841,-8.488 9.431,-7.78c0.177,0.235 1.355,1.827 2.534,3.477Z" style="fill:#fefefe;fill-rule:nonzero;"/></svg>